<?xml version="1.0" encoding="UTF-8"?>
<svg width="30px" height="30px" viewBox="0 0 30 30" version="1.1" xmlns="http://www.w3.org/2000/svg" xmlns:xlink="http://www.w3.org/1999/xlink">
    <!-- Generator: Sketch 55.1 (78136) - https://sketchapp.com -->
    <title>Combined Shape</title>
    <desc>Created with Sketch.</desc>
    <g id="Symbols" stroke="none" stroke-width="1" fill="none" fill-rule="evenodd">
        <g id="Portfolio-Nav-/-Applications" transform="translate(-26.000000, 0.000000)" fill="#0071BC">
            <g id="Group-4">
                <path d="M41,30 C32.7157288,30 26,23.2842712 26,15 C26,6.71572875 32.7157288,0 41,0 C49.2842712,0 56,6.71572875 56,15 C56,23.2842712 49.2842712,30 41,30 Z M38.7142901,17.9107118 C38.7142901,17.5262247 38.4023478,17.2142824 38.0178607,17.2142824 L35.6964294,17.2142824 C35.3119423,17.2142824 35,17.5262247 35,17.9107118 L35,19.3035706 C35,19.6880577 35.3119423,20 35.6964294,20 L38.0178607,20 C38.4023478,20 38.7142901,19.6880577 38.7142901,19.3035706 L38.7142901,17.9107118 Z M38.7142901,14.1964217 C38.7142901,13.8119346 38.4023478,13.4999923 38.0178607,13.4999923 L35.6964294,13.4999923 C35.3119423,13.4999923 35,13.8119346 35,14.1964217 L35,15.5892805 C35,15.9737675 35.3119423,16.2857099 35.6964294,16.2857099 L38.0178607,16.2857099 C38.4023478,16.2857099 38.7142901,15.9737675 38.7142901,15.5892805 L38.7142901,14.1964217 Z M48.0000155,17.9107118 C48.0000155,17.5262247 47.6880732,17.2142824 47.3035861,17.2142824 L40.3392921,17.2142824 C39.954805,17.2142824 39.6428627,17.5262247 39.6428627,17.9107118 L39.6428627,19.3035706 C39.6428627,19.6880577 39.954805,20 40.3392921,20 L47.3035861,20 C47.6880732,20 48.0000155,19.6880577 48.0000155,19.3035706 L48.0000155,17.9107118 Z M38.7142901,10.4821315 C38.7142901,10.0976444 38.4023478,9.78570211 38.0178607,9.78570211 L35.6964294,9.78570211 C35.3119423,9.78570211 35,10.0976444 35,10.4821315 L35,11.8749903 C35,12.2594774 35.3119423,12.5714197 35.6964294,12.5714197 L38.0178607,12.5714197 C38.4023478,12.5714197 38.7142901,12.2594774 38.7142901,11.8749903 L38.7142901,10.4821315 Z M48.0000155,14.1964217 C48.0000155,13.8119346 47.6880732,13.4999923 47.3035861,13.4999923 L40.3392921,13.4999923 C39.954805,13.4999923 39.6428627,13.8119346 39.6428627,14.1964217 L39.6428627,15.5892805 C39.6428627,15.9737675 39.954805,16.2857099 40.3392921,16.2857099 L47.3035861,16.2857099 C47.6880732,16.2857099 48.0000155,15.9737675 48.0000155,15.5892805 L48.0000155,14.1964217 Z M48.0000155,10.4821315 C48.0000155,10.0976444 47.6880732,9.78570211 47.3035861,9.78570211 L40.3392921,9.78570211 C39.954805,9.78570211 39.6428627,10.0976444 39.6428627,10.4821315 L39.6428627,11.8749903 C39.6428627,12.2594774 39.954805,12.5714197 40.3392921,12.5714197 L47.3035861,12.5714197 C47.6880732,12.5714197 48.0000155,12.2594774 48.0000155,11.8749903 L48.0000155,10.4821315 Z" id="Combined-Shape"></path>
            </g>
        </g>
    </g>
</svg>