<svg xmlns="http://www.w3.org/2000/svg" viewBox="0 0 16 16"><path d="M16 16h-2v-3.225l-3.919-.781C9.455 11.869 9 11.314 9 10.675V9.242c0-.477.236-.921.631-1.187C9.919 7.86 11 6.595 11 5c0-1.853-1.558-3-3-3-1.449 0-3 1.206-3 3 0 1.596 1.081 2.859 1.371 3.056.395.268.629.711.629 1.186v1.433c0 .64-.455 1.194-1.083 1.319l-3.916.783L2 16H0v-3.221c0-.951.677-1.776 1.609-1.963L5 10.139v-.623C4.235 8.839 3 7.136 3 5c0-3.088 2.595-5 5-5 2.757 0 5 2.243 5 5 0 2.134-1.234 3.837-2 4.516v.623l3.396.679c.929.187 1.604 1.01 1.604 1.957V16z"/></svg>
