<svg xmlns="http://www.w3.org/2000/svg" viewBox="0 0 16 16"><path d="M15 13H1c-.552 0-1-.447-1-1V2c0-.552.448-1 1-1h14c.553 0 1 .448 1 1v10c0 .553-.447 1-1 1zM2 11h12V3H2v8zm6-8c-.552 0-1-.448-1-1V1c0-.552.448-1 1-1s1 .448 1 1v1c0 .552-.448 1-1 1zM3.999 16c-.19 0-.383-.055-.554-.168-.459-.307-.583-.927-.277-1.387l2-3c.306-.46.926-.584 1.387-.277.459.307.583.927.277 1.387l-2 3c-.193.289-.51.445-.833.445zm8.002 0c-.323 0-.641-.156-.833-.445l-2-3c-.306-.46-.182-1.08.277-1.387.46-.307 1.08-.183 1.387.277l2 3c.307.46.183 1.08-.277 1.387-.171.113-.364.168-.554.168zM4 10c-.256 0-.512-.098-.707-.293-.391-.391-.391-1.023 0-1.414l3-3c.391-.391 1.023-.391 1.414 0L9 6.586l2.293-2.293c.391-.391 1.023-.391 1.414 0s.391 1.023 0 1.414l-3 3c-.391.391-1.023.391-1.414 0L7 7.414 4.707 9.707C4.512 9.902 4.256 10 4 10z"/></svg>
