<svg xmlns="http://www.w3.org/2000/svg" viewBox="0 0 16 16"><path d="M8 15c-3.577 0-4.842-2.448-4.895-2.553-.247-.494-.047-1.095.447-1.342.495-.246 1.095-.047 1.342.447C4.92 11.6 5.702 13 8 13c1.038 0 3-.418 3-2S9.038 9 8 9C5.515 9 3 7.626 3 5s2.515-4 5-4c3.577 0 4.843 2.449 4.895 2.553.247.494.047 1.095-.447 1.342-.489.246-1.085.049-1.336-.436C11.066 4.375 10.278 3 8 3c-1.038 0-3 .418-3 2s1.962 2 3 2c2.484 0 5 1.374 5 4s-2.516 4-5 4zm0 1c-.552 0-1-.447-1-1V1c0-.552.448-1 1-1s1 .448 1 1v14c0 .553-.448 1-1 1z"/></svg>
