<?xml version="1.0" encoding="UTF-8"?>
<svg width="30px" height="30px" viewBox="0 0 30 30" version="1.1" xmlns="http://www.w3.org/2000/svg" xmlns:xlink="http://www.w3.org/1999/xlink">
    <!-- Generator: Sketch 55.1 (78136) - https://sketchapp.com -->
    <title>Shape</title>
    <desc>Created with Sketch.</desc>
    <g id="Symbols" stroke="none" stroke-width="1" fill="none" fill-rule="evenodd">
        <g id="Portfolio-Nav-/-Funding" transform="translate(-12.000000, 0.000000)" fill="#0071BC" fill-rule="nonzero">
            <g id="Group">
                <path d="M27,0 C18.7333333,0 12,6.73333333 12,15 C12,23.2666667 18.7333333,30 27,30 C35.2666667,30 42,23.2666667 42,15 C42,6.73333333 35.2666667,0 27,0 Z M29.5138284,20.9349809 C28.9570383,21.2107813 28.2731789,21.325742 27.589873,21.4089879 L27.5500151,23.6924464 C27.5406042,24.2315964 27.0789776,24.6359554 26.559629,24.6268901 C26.0078211,24.6172583 25.5936005,24.1658869 25.6024578,23.6584517 L25.6428693,21.3432785 C24.6718585,21.1677076 23.7360749,20.8341298 22.9664629,20.281382 C22.5175686,19.9563029 22.4307088,19.3520238 22.7624983,18.9453985 C23.0948413,18.5070584 23.7132286,18.4226793 24.1296635,18.7471919 C25.3157105,19.6244522 27.3903371,19.8192868 28.6343082,19.2382375 C29.354502,18.9018405 29.6890593,18.3366417 29.7028989,17.5437741 C29.7167384,16.7509066 28.910792,16.4195951 26.6463919,15.9359287 C24.5437347,15.48681 21.6967281,14.8978011 21.7459969,12.0751927 C21.7731225,10.5211723 22.5737351,9.29789683 24.0135691,8.65681758 C24.5698056,8.41273181 25.1893,8.2649233 25.839593,8.21282548 L25.8683793,6.563661 C25.8777902,6.02451107 26.3394168,5.62015206 26.8587654,5.62921732 C27.4105733,5.63884917 27.8247939,6.09022051 27.8159366,6.59765574 L27.7860432,8.31024962 C28.8544318,8.48752024 29.8534732,8.9173753 30.6544374,9.53411911 C31.0708723,9.85863165 31.1252729,10.4623441 30.7929298,10.9006842 C30.4611404,11.3073095 29.8427531,11.3916886 29.3944125,11.0348948 C28.3074041,10.06419 26.1695197,9.77307822 24.86063,10.3529944 C24.107977,10.6888248 23.7409603,11.253457 23.7265672,12.0780393 C23.7071918,13.1880538 24.7722589,13.5556127 27.0691183,14.0398456 C29.1393163,14.4883978 31.6952964,15.008878 31.6510098,17.5460542 C31.6568972,19.0689264 30.8892974,20.2610537 29.5138284,20.9349809 Z" id="Shape"></path>
            </g>
        </g>
    </g>
</svg>