<svg viewBox="0 0 16 16" xmlns="http://www.w3.org/2000/svg" fill-rule="evenodd" clip-rule="evenodd" stroke-linejoin="round" stroke-miterlimit="1.414"><path d="M8 16c-4.411 0-8-3.589-8-8s3.589-8 8-8 8 3.589 8 8-3.589 8-8 8zM8 2C4.691 2 2 4.691 2 8s2.691 6 6 6 6-2.691 6-6-2.691-6-6-6zm-.081 10.972c-.274 0-.513-.086-.717-.259-.204-.173-.306-.415-.306-.726 0-.276.099-.508.296-.696.198-.188.44-.283.727-.283.283 0 .521.095.714.283.193.188.289.42.289.696 0 .307-.101.548-.303.723-.202.175-.435.262-.7.262zM4.634 5.773c0-.416.137-.837.411-1.264.274-.427.673-.781 1.198-1.061.525-.28 1.138-.42 1.838-.42.651 0 1.225.117 1.723.351.498.234.883.553 1.155.956.271.403.407.841.407 1.313 0 .373-.078.699-.232.979-.155.28-.339.522-.552.726-.214.204-.596.546-1.148 1.028-.153.136-.275.255-.367.358-.092.103-.16.197-.205.282-.045.086-.08.171-.105.257-.024.085-.061.235-.111.45-.085.455-.352.683-.801.683-.233 0-.43-.075-.589-.224-.159-.149-.239-.37-.239-.663 0-.368.059-.687.175-.956.117-.269.272-.506.465-.709.193-.204.453-.446.781-.726.287-.245.494-.43.622-.555.128-.125.236-.264.323-.417.088-.153.132-.32.132-.499 0-.351-.134-.646-.401-.887s-.611-.361-1.033-.361c-.494 0-.857.121-1.091.364-.233.243-.431.601-.592 1.074-.153.495-.442.742-.869.742-.251 0-.463-.086-.636-.259-.173-.173-.259-.36-.259-.562z" fill-rule="nonzero"/></svg>
